<svg width="16" height="36" viewBox="0 0 16 36" fill="none" xmlns="http://www.w3.org/2000/svg">
<g clip-path="url(#clip0)">
<path d="M13.3143 11.3653C12.1925 10.6215 11.1002 9.87769 9.97848 9.13388C10.4803 8.83636 10.9822 8.44959 11.484 8.12231C12.0449 7.76529 12.4582 7.46777 12.6058 6.75372C12.8419 5.44463 12.1925 4.01653 11.5135 2.94545C10.746 1.75537 9.59471 0.505785 8.17774 0.0892562C7.52829 -0.0892562 6.99692 0 6.46556 0.357025C5.93419 0.71405 5.43235 1.04132 4.9305 1.39835C4.39914 1.75537 3.74969 2.05289 3.51353 2.67769C3.18881 3.57025 3.45449 4.61157 3.80873 5.47438C3.39545 5.50413 3.0412 5.80165 2.71648 6.00992C2.36224 6.24793 2.03751 6.4562 1.71279 6.69422C1.12238 7.08099 0.266295 7.43802 0.0891735 8.21157C-0.058428 8.80661 0.0301329 9.52066 0.0301329 10.1455C0.0301329 12.2281 0.0301329 14.281 0.0301329 16.3636C0.0301329 17.4645 0.354856 18.4463 0.945262 19.3686C1.18142 19.7256 1.44711 20.0826 1.77183 20.4099C1.91943 20.5587 2.06703 20.7074 2.21464 20.8264C2.3032 20.9157 2.62792 21.0645 2.68696 21.1835C2.746 21.3025 2.68696 21.6 2.68696 21.719C2.68696 23.8314 2.68696 25.914 2.68696 28.0264C2.68696 28.681 2.62792 29.395 2.80504 30.0198C3.15928 31.5074 4.1925 32.876 5.46187 33.7091C6.25892 34.2446 7.08549 34.8099 7.88253 35.3455C8.4139 35.7025 9.00431 36.0595 9.65375 35.9702C10.3032 35.881 10.9526 35.2562 11.484 34.8992C12.0449 34.5124 12.96 34.1554 13.2257 33.5008C13.3733 33.1736 13.3438 32.7868 13.3438 32.4298C13.3438 31.4182 13.3438 30.4364 13.3438 29.4248C13.3438 28.8595 13.3438 28.2942 13.3438 27.7289C13.3438 27.3719 13.2847 26.9851 13.3438 26.6579C13.3438 26.6281 13.3143 26.5388 13.3438 26.5091C13.3733 26.4198 13.639 26.3306 13.698 26.2711C13.8752 26.1521 14.0523 26.0331 14.2294 25.914C14.7903 25.5273 15.6759 25.1702 15.9121 24.4562C16.0892 23.8612 16.0006 23.0876 16.0006 22.4628C16.0006 21.3322 16.0006 20.1719 16.0006 19.0413C16.0006 18.0893 16.0006 17.1669 16.0006 16.2149C16.0006 15.114 15.7054 14.162 15.115 13.2099C14.6427 12.5256 14.0228 11.8711 13.3143 11.3653Z" fill="#424242"/>
<path d="M6.90777 16.8694L8.44283 14.7867L9.97788 12.7041L6.64209 10.4727L3.33582 8.24127L4.87087 12.3768L6.40593 16.5123C6.46497 16.6314 6.55353 16.7504 6.64209 16.8099C6.73065 16.8694 6.84873 16.9289 6.90777 16.8694Z" fill="white"/>
<path d="M7.54411 11.7192C7.3473 11.3912 7.0849 11.0961 6.7897 10.9321C6.5601 10.7353 6.29769 10.6697 6.06809 10.7353C5.87129 10.8009 5.77289 10.9977 5.77289 11.2601C5.77289 11.5224 5.87129 11.8504 6.06809 12.2112C6.16649 12.408 6.26489 12.6047 6.29769 12.7687C6.33049 12.9327 6.33049 13.0967 6.26489 13.2279L5.93689 13.9822L5.60889 14.7366L6.06809 15.9501L6.5273 17.1636C6.5929 17.2948 6.6913 17.426 6.7897 17.4916C6.8881 17.5572 6.9865 17.59 7.0521 17.4916L7.51131 16.8684L7.97051 16.2453L7.64251 15.0646L7.3145 13.8838C7.2489 13.6871 7.2489 13.5231 7.2817 13.4247C7.3145 13.3263 7.3801 13.1951 7.51131 13.1623C7.70811 13.0967 7.80651 12.8999 7.80651 12.6375C7.87211 12.3752 7.77371 12.0472 7.54411 11.7192Z" fill="#D50000"/>
<path d="M6.67161 9.13386C7.58674 9.75865 8.41331 9.93717 9.03323 9.7289C9.65316 9.52064 10.0074 8.9256 10.0074 8.00328C10.0074 7.08097 9.62364 5.98014 9.03323 4.96857C8.44283 3.957 7.61626 3.03469 6.67161 2.40989C5.72696 1.7851 4.92991 1.60659 4.30999 1.81485C3.69006 2.02312 3.33582 2.61816 3.33582 3.54047C3.33582 4.46279 3.71958 5.56361 4.30999 6.57518C4.90039 7.58675 5.75648 8.53882 6.67161 9.13386Z" fill="black"/>
<path d="M10.6568 13.1504L10.3321 12.9421L10.0074 12.7041L8.47235 14.7868L6.93729 16.8694C6.87825 16.9289 6.78969 16.9289 6.70113 16.8694C6.61257 16.8099 6.52401 16.6909 6.46496 16.5719L4.92991 12.4363L3.39485 8.3008L3.01109 8.03303L2.68637 7.79501C1.94836 7.28923 1.29891 7.17022 0.797069 7.31898C0.295224 7.46774 0.029541 7.94378 0.029541 8.68758V12.7041V16.7206C0.029541 17.4644 0.324744 18.3272 0.797069 19.1306C1.26939 19.9339 1.94836 20.6777 2.68637 21.1834V25.2V29.2165C2.68637 29.9603 2.98157 30.8231 3.45389 31.6264C3.92622 32.4297 4.60519 33.1735 5.34319 33.6793L6.67161 34.5719L8.00002 35.4644C8.73803 35.9702 9.38747 36.0892 9.88932 35.9405C10.3912 35.7917 10.6568 35.3157 10.6568 34.5719V30.5553V26.5388C11.3949 27.0446 12.0443 27.1636 12.5461 27.0148C13.048 26.8661 13.3137 26.3901 13.3137 25.6463V21.6297V17.6132C13.3137 16.8694 13.0185 16.0066 12.5461 15.2033C12.0738 14.4 11.3949 13.6562 10.6568 13.1504Z" fill="black"/>
</g>
<defs>
<clipPath id="clip0">
<path d="M0 0H16V36H0V0Z" fill="white"/>
</clipPath>
</defs>
</svg>
