<svg width="16" height="36" viewBox="0 0 16 36" fill="none" xmlns="http://www.w3.org/2000/svg">
<g clip-path="url(#clip0)">
<path d="M13.3134 11.3653C12.1916 10.6215 11.0994 9.87769 9.97762 9.13388C10.4795 8.83636 10.9813 8.44959 11.4832 8.12231C12.044 7.76529 12.4573 7.46777 12.6049 6.75372C12.8411 5.44463 12.1916 4.01653 11.5127 2.94545C10.7451 1.75537 9.59386 0.505785 8.17688 0.0892562C7.52744 -0.0892562 6.99607 0 6.4647 0.357025C5.93334 0.71405 5.43149 1.04132 4.92965 1.39835C4.39828 1.75537 3.74884 2.05289 3.51267 2.67769C3.18795 3.57025 3.45363 4.61157 3.80788 5.47438C3.39459 5.50413 3.04035 5.80165 2.71563 6.00992C2.36138 6.24793 2.03666 6.4562 1.71194 6.69422C1.12153 7.08099 0.265441 7.43802 0.088319 8.21157C-0.0592825 8.80661 0.0292784 9.52066 0.0292784 10.1455C0.0292784 12.2281 0.0292784 14.281 0.0292784 16.3636C0.0292784 17.4645 0.354002 18.4463 0.944408 19.3686C1.18057 19.7256 1.44625 20.0826 1.77098 20.4099C1.91858 20.5587 2.06618 20.7074 2.21378 20.8264C2.30234 20.9157 2.62707 21.0645 2.68611 21.1835C2.74515 21.3025 2.68611 21.6 2.68611 21.719C2.68611 23.8314 2.68611 25.914 2.68611 28.0264C2.68611 28.681 2.62706 29.395 2.80419 30.0198C3.15843 31.5074 4.19164 32.876 5.46101 33.7091C6.25806 34.2446 7.08463 34.8099 7.88168 35.3455C8.41304 35.7025 9.00345 36.0595 9.6529 35.9702C10.3023 35.881 10.9518 35.2562 11.4832 34.8992C12.044 34.5124 12.9592 34.1554 13.2249 33.5008C13.3725 33.1736 13.3429 32.7868 13.3429 32.4298C13.3429 31.4182 13.3429 30.4364 13.3429 29.4248C13.3429 28.8595 13.3429 28.2942 13.3429 27.7289C13.3429 27.3719 13.2839 26.9851 13.3429 26.6579C13.3429 26.6281 13.3134 26.5388 13.3429 26.5091C13.3725 26.4198 13.6381 26.3306 13.6972 26.2711C13.8743 26.1521 14.0514 26.0331 14.2285 25.914C14.7894 25.5273 15.675 25.1702 15.9112 24.4562C16.0883 23.8612 15.9998 23.0876 15.9998 22.4628C15.9998 21.3322 15.9998 20.1719 15.9998 19.0413C15.9998 18.0893 15.9998 17.1669 15.9998 16.2149C15.9998 15.114 15.7046 14.162 15.1142 13.2099C14.6418 12.5256 14.0219 11.8711 13.3134 11.3653Z" fill="#424242"/>
<path d="M6.67161 9.13386C7.58674 9.75865 8.41331 9.93717 9.03323 9.7289C9.65316 9.52064 10.0074 8.9256 10.0074 8.00328C10.0074 7.08097 9.62364 5.98014 9.03323 4.96857C8.44283 3.957 7.61626 3.03469 6.67161 2.40989C5.72696 1.7851 4.92991 1.60659 4.30999 1.81485C3.69006 2.02312 3.33582 2.61816 3.33582 3.54047C3.33582 4.46279 3.71958 5.56361 4.30999 6.57518C4.90039 7.58675 5.75648 8.53882 6.67161 9.13386Z" fill="black"/>
<path d="M3.33581 8.2413L3.01109 8.03303L2.68637 7.79501C1.94836 7.28923 1.29891 7.17022 0.797069 7.31898C0.295224 7.46774 0.029541 7.94378 0.029541 8.68758V12.7041V16.7206C0.029541 17.4644 0.324744 18.3272 0.797069 19.1306C1.26939 19.9339 1.94836 20.6777 2.68637 21.1834V25.2V29.2165C2.68637 29.9603 2.98157 30.8231 3.45389 31.6264C3.92622 32.4297 4.60519 33.1735 5.34319 33.6793L6.67161 34.5719L8.00002 35.4644C8.73803 35.9702 9.38747 36.0892 9.88932 35.9405C10.3912 35.7917 10.6568 35.3157 10.6568 34.5719V30.5553V26.5388C11.3949 27.0446 12.0443 27.1636 12.5461 27.0148C13.048 26.8661 13.3137 26.3901 13.3137 25.6463V21.6297V17.6132C13.3137 16.8694 13.0185 16.0066 12.5461 15.2033C12.0738 14.4 11.3949 13.6562 10.6568 13.1504L3.33581 8.2413Z" fill="black"/>
</g>
<defs>
<clipPath id="clip0">
<path d="M0 0H16V36H0V0Z" fill="white"/>
</clipPath>
</defs>
</svg>
